<svg id="Ikoner" xmlns="http://www.w3.org/2000/svg" viewBox="0 0 40 40"><title>Fakta</title><path d="M35.77,7.68a.87.87,0,0,0-.19-.28L29.08.89a.88.88,0,0,0-.62-.26H8.89A.87.87,0,0,0,8,1.51V38.39a.87.87,0,0,0,.88.88H35a.87.87,0,0,0,.88-.87V8A.87.87,0,0,0,35.77,7.68ZM29.33,3.62l3.52,3.52H29.33ZM9.76,37.52V2.38H27.58V8a.87.87,0,0,0,.88.88h5.64V37.52Z"/><path d="M29,17.75H14.88a.88.88,0,0,0,0,1.75H29a.88.88,0,0,0,0-1.75Z"/><path d="M14.88,15.25h4.31a.88.88,0,0,0,0-1.75H14.88a.88.88,0,0,0,0,1.75Z"/><path d="M29,26.26H14.88a.88.88,0,0,0,0,1.75H29a.88.88,0,0,0,0-1.75Z"/><path d="M29,22H14.88a.88.88,0,0,0,0,1.75H29A.88.88,0,0,0,29,22Z"/><path d="M29,30.52H14.88a.88.88,0,0,0,0,1.75H29a.88.88,0,0,0,0-1.75Z"/></svg>