<svg id="Ikoner" xmlns="http://www.w3.org/2000/svg" viewBox="0 0 40 40"><title>FAQ</title><path d="M20,.66A19.32,19.32,0,1,0,39.32,20,19.34,19.34,0,0,0,20,.66Zm0,36.88A17.57,17.57,0,1,1,37.57,20,17.59,17.59,0,0,1,20,37.54Z"/><path d="M20,9.15a6.55,6.55,0,0,0-6.54,6.54.88.88,0,1,0,1.75,0,4.79,4.79,0,0,1,9.59,0,4.36,4.36,0,0,1-1.13,2.94A13.66,13.66,0,0,1,22,20.15c-1.45,1.16-3.1,2.48-3.1,5.16a.88.88,0,0,0,1.75,0c0-1.84,1.08-2.7,2.44-3.79A14.92,14.92,0,0,0,25,19.8a6.08,6.08,0,0,0,1.57-4.11A6.55,6.55,0,0,0,20,9.15Z"/><circle cx="19.74" cy="29.49" r="1.56"/></svg>