<?xml version="1.0" encoding="utf-8"?>
<!-- Generator: Adobe Illustrator 21.1.0, SVG Export Plug-In . SVG Version: 6.00 Build 0)  -->
<svg version="1.1" id="Layer_1" xmlns="http://www.w3.org/2000/svg" xmlns:xlink="http://www.w3.org/1999/xlink" x="0px" y="0px"
	 viewBox="0 0 481 466.3" style="enable-background:new 0 0 481 466.3;" xml:space="preserve">
<style type="text/css">
	.st0{fill:#FFFFFF;}
</style>
<title>Artboard 4</title>
<path class="st0" d="M111.3,132.1h-0.1c-0.9-0.1-1.7-0.6-2-1.4l-4.3-10.2L94,118.2c-1.3-0.3-2-1.6-1.7-2.8c0.1-0.5,0.4-0.9,0.7-1.2
	l8.4-7.2l-1.2-11c-0.1-1.3,0.8-2.4,2.1-2.6c0.5-0.1,1,0.1,1.4,0.3l9.4,5.7l10.1-4.5c1.2-0.5,2.6,0,3.1,1.2c0.2,0.5,0.3,1,0.1,1.5
	l-2.5,10.7l7.4,8.2c0.9,1,0.8,2.4-0.2,3.3c-0.4,0.3-0.9,0.5-1.4,0.6l-11,0.9l-5.5,9.6C112.9,131.7,112.1,132.1,111.3,132.1z
	 M99.6,114.6l7.4,1.6c0.7,0.2,1.4,0.7,1.7,1.4l2.9,7l3.8-6.6c0.4-0.7,1.1-1.1,1.8-1.2l7.5-0.6l-5.1-5.6c-0.5-0.6-0.7-1.4-0.5-2.1
	l1.7-7.3l-6.9,3.1c-0.7,0.3-1.5,0.3-2.2-0.1l-6.4-3.9l0.8,7.5c0.1,0.8-0.2,1.5-0.8,2L99.6,114.6z"/>
<path class="st0" d="M83.6,185.8h-0.2c-0.9-0.1-1.7-0.6-2-1.4l-4.3-10.2l-10.8-2.3c-1.3-0.3-2-1.6-1.7-2.8c0.1-0.5,0.4-0.9,0.7-1.2
	l8.4-7.2l-1.2-11c-0.1-1.3,0.8-2.4,2.1-2.6c0.5-0.1,1,0.1,1.4,0.3l9.4,5.7l10.1-4.5c1.2-0.5,2.6,0,3.1,1.2c0.2,0.5,0.3,1,0.1,1.5
	L96.3,162l7.4,8.2c0.9,1,0.8,2.4-0.2,3.3c-0.4,0.3-0.9,0.5-1.4,0.6l-11,0.9l-5.5,9.6C85.3,185.3,84.5,185.8,83.6,185.8z M72,168.3
	l7.4,1.6c0.7,0.2,1.4,0.7,1.7,1.4l2.9,7l3.8-6.6c0.4-0.7,1.1-1.1,1.8-1.2l7.5-0.6l-5.1-5.6c-0.5-0.6-0.7-1.4-0.5-2.1l1.7-7.4
	l-6.9,3.1c-0.7,0.3-1.5,0.3-2.2-0.1l-6.4-3.9l0.8,7.5c0.1,0.8-0.2,1.5-0.8,2L72,168.3z"/>
<path class="st0" d="M117.2,247.2h-0.1c-0.9-0.1-1.7-0.6-2-1.4l-4.3-10.2l-10.8-2.3c-1.3-0.3-2-1.6-1.7-2.8c0.1-0.5,0.4-0.9,0.7-1.2
	l8.4-7.2l-1.2-11c-0.1-1.3,0.8-2.4,2.1-2.6c0.5-0.1,1,0.1,1.4,0.3l9.4,5.7l10.1-4.5c1.2-0.5,2.6,0,3.1,1.2c0.2,0.5,0.3,1,0.1,1.5
	l-2.5,10.7l7.4,8.2c0.9,1,0.8,2.4-0.2,3.3c-0.4,0.3-0.9,0.5-1.4,0.6l-11,0.9l-5.5,9.6C118.8,246.8,118.1,247.2,117.2,247.2z
	 M105.6,229.8l7.4,1.6c0.7,0.2,1.4,0.7,1.7,1.4l2.9,7l3.8-6.6c0.4-0.7,1.1-1.1,1.8-1.2l7.5-0.6l-5.1-5.6c-0.5-0.6-0.7-1.4-0.5-2.1
	l1.7-7.4l-6.9,3.1c-0.7,0.3-1.5,0.3-2.2-0.1l-6.4-3.9l0.8,7.5c0.1,0.8-0.2,1.5-0.8,2L105.6,229.8z"/>
<path class="st0" d="M172,122h-0.1c-0.9-0.1-1.7-0.6-2-1.4l-4.3-10.2l-10.8-2.3c-1.2-0.3-2-1.6-1.7-2.8c0.1-0.5,0.4-0.9,0.7-1.2
	l8.4-7.2l-1.2-11c-0.1-1.3,0.8-2.4,2.1-2.6c0.5-0.1,1,0.1,1.4,0.3l9.4,5.7l10.1-4.6c1.2-0.5,2.6,0,3.1,1.2c0.2,0.5,0.3,1,0.1,1.5
	l-2.5,10.7l7.4,8.2c0.9,1,0.8,2.4-0.2,3.3c-0.4,0.3-0.9,0.5-1.4,0.6l-11,0.9l-5.5,9.6C173.7,121.6,172.9,122,172,122z M160.4,104.5
	l7.4,1.6c0.7,0.2,1.4,0.7,1.7,1.4l2.9,7l3.8-6.6c0.4-0.7,1.1-1.1,1.8-1.2l7.5-0.6l-5.1-5.6c-0.5-0.6-0.7-1.4-0.5-2.1l1.7-7.4
	l-6.9,3.1c-0.7,0.3-1.5,0.3-2.2-0.1l-6.4-3.9l0.8,7.5c0.1,0.8-0.2,1.5-0.8,2L160.4,104.5z"/>
<path class="st0" d="M220.6,198.4h-0.1c-0.9-0.1-1.7-0.6-2-1.4l-4.3-10.2l-10.8-2.3c-1.2-0.3-2-1.6-1.7-2.8c0.1-0.5,0.4-0.9,0.7-1.2
	l8.4-7.2l-1.2-11c-0.1-1.3,0.8-2.4,2.1-2.6c0.5-0.1,1,0.1,1.4,0.3l9.4,5.7l10.1-4.5c1.2-0.5,2.6,0,3.1,1.2c0.2,0.5,0.3,1,0.1,1.5
	l-2.5,10.7l7.4,8.2c0.9,1,0.8,2.4-0.2,3.3c-0.4,0.3-0.9,0.5-1.4,0.6l-11,0.9l-5.5,9.6C222.3,198,221.5,198.4,220.6,198.4z
	 M209,180.9l7.4,1.6c0.7,0.2,1.4,0.7,1.7,1.4l2.9,7l3.8-6.6c0.4-0.7,1.1-1.1,1.8-1.2l7.5-0.6l-5.1-5.6c-0.5-0.6-0.7-1.4-0.5-2.1
	l1.7-7.4l-6.9,3.1c-0.7,0.3-1.5,0.3-2.2-0.1l-6.4-3.9l0.8,7.5c0.1,0.8-0.2,1.5-0.8,2L209,180.9z"/>
<path class="st0" d="M143.8,230.3h-0.3c-1.3-0.2-2.2-1.3-2-2.6l5.3-40.1c0.3-1.3,1.5-2.1,2.7-1.8c1.1,0.2,1.9,1.3,1.9,2.4l-5.3,40.1
	C145.9,229.5,144.9,230.3,143.8,230.3z"/>
<path class="st0" d="M166.7,216.9c-1,0-1.8-0.6-2.2-1.5l-9-22.4c-0.5-1.2,0-2.6,1.2-3.1c1.2-0.5,2.6,0,3.1,1.2c0,0,0,0.1,0.1,0.1
	l9,22.4c0.5,1.2-0.1,2.6-1.3,3C167.3,216.8,167,216.9,166.7,216.9L166.7,216.9z"/>
<path class="st0" d="M201,206.5c-0.4,0-0.8-0.1-1.1-0.3L162.7,185c-1.2-0.5-1.8-1.8-1.3-3c0.5-1.2,1.8-1.8,3-1.3
	c0.2,0.1,0.4,0.2,0.6,0.3l37.1,21.1c1.1,0.6,1.5,2.1,0.9,3.2C202.6,206,201.8,206.5,201,206.5L201,206.5z"/>
<path class="st0" d="M171.9,176.4c-1.3,0-2.3-1.1-2.3-2.4c0-1.1,0.8-2,1.9-2.2l22.8-4.4c1.2-0.3,2.5,0.5,2.8,1.7
	c0.3,1.2-0.5,2.5-1.7,2.8c-0.1,0-0.2,0-0.2,0l-22.8,4.4C172.2,176.3,172.1,176.4,171.9,176.4z"/>
<path class="st0" d="M161.7,166.3c-1.3,0-2.3-1.1-2.3-2.4c0-0.4,0.1-0.7,0.3-1l20.4-38.2c0.5-1.2,1.9-1.7,3.1-1.2
	c1.2,0.5,1.7,1.9,1.2,3.1c0,0.1-0.1,0.2-0.2,0.3L163.8,165C163.4,165.8,162.6,166.3,161.7,166.3z"/>
<path class="st0" d="M152.7,155.6c-1.2,0-2.2-0.9-2.3-2.1l-3.8-39.4c-0.2-1.3,0.7-2.5,1.9-2.7c1.3-0.2,2.5,0.7,2.7,1.9
	c0,0.1,0,0.2,0,0.3L155,153c0.1,1.3-0.8,2.4-2.1,2.5L152.7,155.6z"/>
<path class="st0" d="M145.6,165.8c-0.8,0-1.6-0.4-2-1.1l-22.4-35.2c-0.7-1.1-0.4-2.5,0.6-3.2s2.5-0.4,3.2,0.6c0,0,0.1,0.1,0.1,0.1
	l22.4,35.2c0.7,1.1,0.4,2.5-0.7,3.2C146.4,165.7,145.9,165.8,145.6,165.8L145.6,165.8z"/>
<path class="st0" d="M136.9,171.9c-0.4,0-0.8-0.1-1.1-0.3L112,158.1c-1.2-0.5-1.8-1.8-1.3-3c0.5-1.2,1.8-1.8,3-1.3
	c0.2,0.1,0.4,0.2,0.6,0.3l23.8,13.6c1.1,0.6,1.5,2.1,0.9,3.2C138.5,171.5,137.8,172,136.9,171.9L136.9,171.9z"/>
<path class="st0" d="M95.1,198.3c-1.3,0-2.3-1.1-2.3-2.4c0-1,0.7-1.9,1.6-2.2l45.8-14.8c1.2-0.5,2.5,0.2,3,1.4
	c0.5,1.2-0.2,2.5-1.4,3c-0.1,0-0.1,0-0.2,0.1l-45.8,14.8C95.5,198.3,95.3,198.3,95.1,198.3z"/>
<ellipse transform="matrix(0.844 -0.5364 0.5364 0.844 -69.5158 108.7261)" class="st0" cx="152.1" cy="173.8" rx="3.2" ry="3.2"/>
<ellipse transform="matrix(0.844 -0.5364 0.5364 0.844 -49.4111 123.5585)" class="st0" cx="187.7" cy="146.7" rx="3.2" ry="3.2"/>
<ellipse transform="matrix(0.844 -0.5364 0.5364 0.844 -39.6309 127.6321)" class="st0" cx="199.6" cy="131.9" rx="3.2" ry="3.2"/>
<ellipse transform="matrix(0.844 -0.5364 0.5364 0.844 -47.8502 132.0865)" class="st0" cx="203.1" cy="148.3" rx="3.2" ry="3.2"/>
<ellipse transform="matrix(0.844 -0.5364 0.5364 0.844 -95.7761 79.6656)" class="st0" cx="89" cy="204.5" rx="3.2" ry="3.2"/>
<ellipse transform="matrix(0.844 -0.5364 0.5364 0.844 -59.1271 72.7869)" class="st0" cx="95.5" cy="138" rx="3.2" ry="3.2"/>
<ellipse transform="matrix(0.844 -0.5364 0.5364 0.844 -53.1049 61.8707)" class="st0" cx="79.8" cy="122.2" rx="3.2" ry="3.2"/>
<ellipse transform="matrix(0.844 -0.5364 0.5364 0.844 -31.2732 89.659)" class="st0" cx="138.5" cy="98.6" rx="3.2" ry="3.2"/>
<ellipse transform="matrix(0.844 -0.5364 0.5364 0.844 -19.2171 91.6818)" class="st0" cx="148" cy="78.9" rx="3.2" ry="3.2"/>
<ellipse transform="matrix(0.844 -0.5364 0.5364 0.844 -65.8723 56.6002)" class="st0" cx="64.3" cy="141.5" rx="3.2" ry="3.2"/>
</svg>
