<?xml version="1.0" encoding="utf-8"?>
<!-- Generator: Adobe Illustrator 18.1.1, SVG Export Plug-In . SVG Version: 6.00 Build 0)  -->
<svg version="1.1" id="Layer_1" xmlns="http://www.w3.org/2000/svg" xmlns:xlink="http://www.w3.org/1999/xlink" x="0px" y="0px"
	 width="155.9px" height="25.5px" viewBox="0 0 155.9 25.5" enable-background="new 0 0 155.9 25.5" xml:space="preserve">
<g>
	<path fill="#FFFFFF" d="M7.1,20.4V5.2h6.3v0.7H7.8v6.6V13v7.4H7.1z M8.3,12.5V6.4h5.1v0.7H9v4.7h4.4v0.7H8.3z M8.3,20.4V13h5.1v0.7
		H9v6.6H8.3z"/>
	<path fill="#FFFFFF" d="M14.8,5.9V5.2h3.2c1.3,0,2.3,0.4,2.9,1.1c0.6,0.7,0.9,1.8,0.9,3.2c0,1.4-0.3,2.5-0.9,3.2
		c0,0-0.1,0.1-0.1,0.1c0,0-0.1,0.1-0.1,0.1c0.4,0.4,0.6,0.8,0.8,1.3c0.2,0.5,0.3,1.1,0.3,1.7v4.5h-0.7v-4.5c0-1-0.3-1.8-0.9-2.4
		c-0.2-0.2-0.5-0.4-0.9-0.6c1.2-0.4,1.7-1.6,1.7-3.4c0-1.2-0.2-2.1-0.7-2.7c-0.5-0.6-1.3-0.9-2.4-0.9h-2.2h-0.2H14.8z M14.8,20.4
		v-14h0.7v14H14.8z M16,12.6V6.4h1.9c0.9,0,1.6,0.2,2,0.7c0.4,0.5,0.6,1.3,0.6,2.4c0,1.1-0.2,1.9-0.6,2.4c-0.4,0.5-1.1,0.7-2,0.7
		h-0.2H16z M16,20.4v-7.2h1.7h0.2c0.9,0,1.5,0.2,2,0.7c0.5,0.5,0.7,1.2,0.7,2v4.5h-0.7v-4.5c0-1.3-0.6-2-1.9-2h-1h-0.2v6.5H16z
		 M16.7,11.9h0.2h1c0.5,0,0.9-0.1,1.1-0.2c0.2-0.1,0.3-0.2,0.4-0.3c0.3-0.4,0.5-1,0.5-1.9c0-0.5,0-0.9-0.1-1.2
		c-0.1-0.3-0.2-0.5-0.4-0.7c-0.2-0.2-0.4-0.3-0.6-0.3c-0.2-0.1-0.5-0.1-0.8-0.1h-1.2V11.9z"/>
	<path fill="#FFFFFF" d="M23.4,20.4V5.2h6.3v0.7h-5.6v6.6V13v6.6h5.6v0.7H23.4z M24.6,12.5V6.4h5.1v0.7h-4.4v4.7h4.4v0.7H24.6z
		 M24.6,19.2V13h5.1v0.7h-4.4v4.7h4.4v0.7H24.6z"/>
	<path fill="#FFFFFF" d="M31,20.4V5.1h0.2h0.5H32h0.5h0.3l3.1,10.7l3.1-10.7h0.2h0.6h0.2h0.3h0.4v15.2h-0.7V5.9h-0.5l-3.6,12.6
		L32.2,5.9h-0.4v14.5H31z M32.3,20.4V7.9l3.6,12.4l3.6-12.4v12.5h-0.7v-7.3l-2.1,7.3h-1.5L33,13.1v7.3H32.3z"/>
	<path fill="#FFFFFF" d="M41.9,5.9V5.2h8.6v0.7h-4.1H46H41.9z M41.9,7.1V6.4H46v14h-0.7V7.1H41.9z M46.5,20.4v-0.7V6.4h4.1v0.7h-3.3
		v13.3H46.5z"/>
	<path fill="#FFFFFF" d="M52.3,20.4V5.1H53v15.2H52.3z M53.5,20.4V5.1h0.7v15.2H53.5z"/>
	<path fill="#FFFFFF" d="M55.8,20.4v-0.7h0.7h0.2h2.1c1,0,1.8-0.3,2.4-0.9c0.5-0.6,0.7-1.5,0.7-2.7V9.6c0-1.2-0.2-2.1-0.7-2.7
		c-0.5-0.6-1.3-1-2.4-1h-2.1h-0.2h-0.7V5.2h3c1.3,0,2.3,0.4,3,1.2c0.6,0.7,0.9,1.8,0.9,3.2V16c0,1.4-0.3,2.4-0.9,3.2
		c-0.7,0.8-1.6,1.2-3,1.2H55.8z M55.8,19.2V6.4h0.7v12.8H55.8z M57,19.2V6.4h1.8c0.9,0,1.6,0.3,2,0.8c0.4,0.5,0.6,1.3,0.6,2.4V16
		c0,1.1-0.2,1.9-0.6,2.4c-0.4,0.5-1.1,0.8-2,0.8H57z M57.8,18.4h1.1c0.2,0,0.5,0,0.7-0.1c0.2,0,0.4-0.1,0.6-0.3
		c0.2-0.2,0.3-0.4,0.4-0.7c0.1-0.3,0.2-0.8,0.2-1.3V9.6c0-0.6-0.1-1-0.2-1.3c-0.1-0.3-0.2-0.6-0.4-0.7c-0.2-0.2-0.4-0.3-0.6-0.3
		c-0.2,0-0.5-0.1-0.7-0.1h-1.1V18.4z"/>
	<path fill="#FFFFFF" d="M63.9,20.4V5.2h6.3v0.7h-5.6v6.6V13v6.6h5.6v0.7H63.9z M65.1,12.5V6.4h5.1v0.7h-4.4v4.7h4.4v0.7H65.1z
		 M65.1,19.2V13h5.1v0.7h-4.4v4.7h4.4v0.7H65.1z"/>
	<path fill="#FFFFFF" d="M71.6,20.3V5.1h0.2h0.5h0.1H73h0.3l3.7,9.2V5.1h0.7v13L72.7,5.9h-0.4v14.5H71.6z M72.8,20.3v-13l4.9,12.2
		h0.4V5.1h0.7v15.2h-0.2h-0.5H78h-0.6h-0.3l-3.7-9.2v9.2H72.8z"/>
	<path fill="#FFFFFF" d="M80.4,9.5c0-0.6,0.1-1.2,0.3-1.8c0.2-0.5,0.4-1,0.7-1.4c0.3-0.4,0.7-0.7,1.2-0.9C83,5.3,83.4,5.2,84,5.2
		c0.7,0,1.3,0.1,1.8,0.4c0.4,0.3,0.8,0.5,1,0.8c0.6,0.8,0.9,1.8,0.9,3.2v1h-0.7v-1c0-1.2-0.2-2.1-0.7-2.7c-0.5-0.6-1.2-0.9-2.2-0.9
		c-0.9,0-1.7,0.4-2.2,1.1c-0.5,0.6-0.7,1.5-0.7,2.5c0,0.6,0.1,1.1,0.3,1.5c0.2,0.4,0.4,0.8,0.7,1c0.3,0.3,0.6,0.5,0.9,0.6
		c0.3,0.2,0.6,0.3,0.7,0.3l0.4,0.2c0.2,0.1,0.4,0.2,0.7,0.3c0.3,0.1,0.5,0.3,0.8,0.5c0.2,0.2,0.5,0.5,0.6,0.9
		c0.2,0.3,0.3,0.8,0.3,1.3c0,0.9-0.2,1.7-0.6,2.2c-0.4,0.5-1,0.8-1.8,0.8c-0.8,0-1.4-0.2-1.8-0.7c-0.4-0.5-0.6-1.3-0.6-2.4v-1h0.7v1
		c0,0.9,0.2,1.5,0.5,1.9c0.1,0.1,0.2,0.2,0.4,0.3c0.2,0.1,0.5,0.2,0.8,0.2c0.4,0,0.7-0.1,0.9-0.2c0.2-0.2,0.4-0.3,0.5-0.6
		c0.1-0.2,0.2-0.5,0.2-0.7c0-0.3,0.1-0.5,0.1-0.7c0-0.4-0.1-0.7-0.2-0.9c-0.1-0.2-0.3-0.5-0.4-0.6c-0.2-0.2-0.4-0.3-0.6-0.4
		c-0.2-0.1-0.4-0.2-0.7-0.3l-0.4-0.2c-0.2-0.1-0.5-0.2-0.8-0.4c-0.3-0.2-0.7-0.4-1-0.7C80.8,11.8,80.4,10.8,80.4,9.5z M80.4,16.1v-1
		h0.7v1c0,1.2,0.2,2.1,0.7,2.7c0.5,0.6,1.2,0.9,2.2,0.9c0.5,0,0.9-0.1,1.2-0.3c0.4-0.2,0.7-0.4,0.9-0.8c0.2-0.3,0.4-0.7,0.5-1.1
		c0.1-0.4,0.2-0.9,0.2-1.4c0-0.6-0.1-1.1-0.3-1.5c-0.2-0.4-0.4-0.7-0.7-1c-0.3-0.3-0.6-0.5-0.9-0.6c-0.3-0.1-0.5-0.3-0.7-0.3
		l-0.3-0.1c-0.2-0.1-0.4-0.2-0.7-0.3c-0.3-0.1-0.5-0.3-0.8-0.6c-0.2-0.2-0.5-0.5-0.6-0.9c-0.2-0.3-0.3-0.8-0.3-1.3
		c0-0.4,0-0.7,0.1-1.1s0.2-0.7,0.4-1c0.2-0.3,0.4-0.6,0.8-0.7c0.3-0.2,0.7-0.3,1.1-0.3c0.8,0,1.4,0.2,1.8,0.7
		c0.4,0.5,0.6,1.3,0.6,2.4v1h-0.7v-1c0-0.6-0.1-1.1-0.2-1.4c-0.1-0.3-0.3-0.6-0.4-0.7c-0.2-0.1-0.4-0.2-0.6-0.3c-0.2,0-0.4,0-0.5,0
		c-0.4,0-0.7,0.1-0.9,0.3c-0.2,0.2-0.4,0.4-0.5,0.7c-0.1,0.3-0.2,0.5-0.2,0.8c0,0.3,0,0.5,0,0.6c0,0.4,0.1,0.7,0.2,0.9
		c0.1,0.3,0.3,0.5,0.4,0.7c0.2,0.2,0.4,0.3,0.6,0.5c0.2,0.1,0.5,0.2,0.7,0.3l0.3,0.2c0.2,0.1,0.5,0.2,0.8,0.4c0.3,0.2,0.7,0.4,1,0.7
		c0.9,0.8,1.3,1.8,1.3,3c0,1.2-0.3,2.1-0.9,2.9c-0.7,0.9-1.6,1.3-2.8,1.3c-1.2,0-2.1-0.4-2.7-1.2C80.6,18.5,80.4,17.4,80.4,16.1z"/>
	<path fill="#FFFFFF" d="M94.9,20.4v-0.7h0.7h0.2h0.3h1.7c1,0,1.8-0.3,2.3-0.9c0.5-0.6,0.7-1.5,0.7-2.7c0-1.2-0.2-2.1-0.7-2.7
		c-0.2-0.3-0.5-0.5-0.9-0.7c1.1-0.4,1.6-1.5,1.6-3.3c0-1.2-0.2-2.1-0.7-2.7c-0.5-0.6-1.2-0.9-2.3-0.9h-2h-0.2h-0.7V5.2h2.9
		c1.3,0,2.2,0.4,2.8,1.1c0.6,0.7,0.9,1.8,0.9,3.1c0,1.4-0.3,2.4-0.9,3.1c-0.1,0.1-0.1,0.1-0.2,0.2c0.1,0.1,0.1,0.1,0.2,0.2
		c0.6,0.7,0.9,1.8,0.9,3.1c0,1.4-0.3,2.4-0.9,3.1c-0.6,0.8-1.6,1.1-2.8,1.1h-1H94.9z M94.9,19.2v-0.7V6.4h0.7v12.8H94.9z M96.1,12.5
		V6.4h1.7c0.9,0,1.5,0.2,1.9,0.7c0.4,0.5,0.6,1.3,0.6,2.3c0,1.1-0.2,1.9-0.6,2.4c-0.4,0.5-1,0.7-1.9,0.7H96.1z M96.1,19.2V13h1.7
		c0.9,0,1.5,0.2,1.9,0.7c0.4,0.5,0.6,1.3,0.6,2.4c0,1.1-0.2,1.8-0.6,2.4c-0.4,0.5-1,0.7-1.9,0.7H96.1z M96.8,11.8h1
		c0.4,0,0.8,0,1-0.1c0.2-0.1,0.3-0.2,0.4-0.3c0.3-0.3,0.4-1,0.4-1.9c0-0.5,0-1-0.1-1.3c-0.1-0.3-0.2-0.5-0.4-0.7
		c-0.2-0.2-0.3-0.3-0.6-0.3c-0.2,0-0.5-0.1-0.7-0.1h-1V11.8z M96.8,18.4h1c0.2,0,0.5,0,0.7-0.1c0.2,0,0.4-0.1,0.6-0.3
		c0.2-0.2,0.3-0.4,0.4-0.7c0.1-0.3,0.1-0.7,0.1-1.3c0-0.6,0-1-0.1-1.3c-0.1-0.3-0.2-0.5-0.4-0.7c-0.2-0.2-0.3-0.3-0.6-0.3
		c-0.2,0-0.4-0.1-0.7-0.1h-1V18.4z"/>
	<path fill="#FFFFFF" d="M101.8,5.2h0.8l4.2,7.7v7.5h-0.7V13L101.8,5.2z M103.2,5.2h0.8l3.1,5.6l3.1-5.6h0.8l-3.9,7.1L103.2,5.2z
		 M107.4,20.4v-7.5l4.2-7.7h0.9l-4.4,7.9v7.3H107.4z"/>
	<path fill="#FFFFFF" d="M113.3,5.9V5.2h3.2c1.3,0,2.3,0.4,2.9,1.1c0.6,0.7,0.9,1.8,0.9,3.2c0,1.4-0.3,2.5-0.9,3.2
		c0,0-0.1,0.1-0.1,0.1c0,0-0.1,0.1-0.1,0.1c0.4,0.4,0.6,0.8,0.8,1.3c0.2,0.5,0.3,1.1,0.3,1.7v4.5h-0.7v-4.5c0-1-0.3-1.8-0.9-2.4
		c-0.2-0.2-0.5-0.4-0.9-0.6c1.2-0.4,1.7-1.6,1.7-3.4c0-1.2-0.2-2.1-0.7-2.7c-0.5-0.6-1.3-0.9-2.4-0.9h-2.2h-0.2H113.3z M113.3,20.4
		v-14h0.7v14H113.3z M114.6,12.6V6.4h1.9c0.9,0,1.6,0.2,2,0.7c0.4,0.5,0.6,1.3,0.6,2.4c0,1.1-0.2,1.9-0.6,2.4
		c-0.4,0.5-1.1,0.7-2,0.7h-0.2H114.6z M114.6,20.4v-7.2h1.7h0.2c0.9,0,1.5,0.2,2,0.7c0.5,0.5,0.7,1.2,0.7,2v4.5h-0.7v-4.5
		c0-1.3-0.6-2-1.9-2h-1h-0.2v6.5H114.6z M115.3,11.9h0.2h1c0.5,0,0.9-0.1,1.1-0.2c0.2-0.1,0.3-0.2,0.4-0.3c0.3-0.4,0.5-1,0.5-1.9
		c0-0.5,0-0.9-0.1-1.2c-0.1-0.3-0.2-0.5-0.4-0.7c-0.2-0.2-0.4-0.3-0.6-0.3c-0.2-0.1-0.5-0.1-0.8-0.1h-1.2V11.9z"/>
	<path fill="#FFFFFF" d="M122,20.4V5.2h6.3v0.7h-5.6v6.6V13v6.6h5.6v0.7H122z M123.2,12.5V6.4h5.1v0.7h-4.4v4.7h4.4v0.7H123.2z
		 M123.2,19.2V13h5.1v0.7h-4.4v4.7h4.4v0.7H123.2z"/>
	<path fill="#FFFFFF" d="M130.2,20.4V5.1h0.7v15.2H130.2z M131.5,20.4V5.1h0.7v15.2H131.5z"/>
	<path fill="#FFFFFF" d="M133.8,9.5c0-0.6,0.1-1.2,0.3-1.8c0.2-0.5,0.4-1,0.7-1.4c0.3-0.4,0.7-0.7,1.2-0.9c0.5-0.2,0.9-0.3,1.5-0.3
		c0.7,0,1.3,0.1,1.8,0.4c0.4,0.3,0.8,0.5,1,0.8c0.6,0.8,0.9,1.8,0.9,3.2v1h-0.7v-1c0-1.2-0.2-2.1-0.7-2.7c-0.5-0.6-1.2-0.9-2.2-0.9
		c-0.9,0-1.7,0.4-2.2,1.1c-0.5,0.6-0.7,1.5-0.7,2.5c0,0.6,0.1,1.1,0.3,1.5c0.2,0.4,0.4,0.8,0.7,1c0.3,0.3,0.6,0.5,0.9,0.6
		c0.3,0.2,0.6,0.3,0.7,0.3l0.4,0.2c0.2,0.1,0.4,0.2,0.7,0.3c0.3,0.1,0.5,0.3,0.8,0.5c0.2,0.2,0.5,0.5,0.6,0.9
		c0.2,0.3,0.3,0.8,0.3,1.3c0,0.9-0.2,1.7-0.6,2.2c-0.4,0.5-1,0.8-1.8,0.8c-0.8,0-1.4-0.2-1.8-0.7c-0.4-0.5-0.6-1.3-0.6-2.4v-1h0.7v1
		c0,0.9,0.2,1.5,0.5,1.9c0.1,0.1,0.2,0.2,0.4,0.3c0.2,0.1,0.5,0.2,0.8,0.2c0.4,0,0.7-0.1,0.9-0.2c0.2-0.2,0.4-0.3,0.5-0.6
		c0.1-0.2,0.2-0.5,0.2-0.7c0-0.3,0.1-0.5,0.1-0.7c0-0.4-0.1-0.7-0.2-0.9c-0.1-0.2-0.3-0.5-0.4-0.6c-0.2-0.2-0.4-0.3-0.6-0.4
		c-0.2-0.1-0.4-0.2-0.7-0.3l-0.4-0.2c-0.2-0.1-0.5-0.2-0.8-0.4c-0.3-0.2-0.7-0.4-1-0.7C134.2,11.8,133.8,10.8,133.8,9.5z
		 M133.8,16.1v-1h0.7v1c0,1.2,0.2,2.1,0.7,2.7c0.5,0.6,1.2,0.9,2.2,0.9c0.5,0,0.9-0.1,1.2-0.3c0.4-0.2,0.7-0.4,0.9-0.8
		c0.2-0.3,0.4-0.7,0.5-1.1c0.1-0.4,0.2-0.9,0.2-1.4c0-0.6-0.1-1.1-0.3-1.5c-0.2-0.4-0.4-0.7-0.7-1c-0.3-0.3-0.6-0.5-0.9-0.6
		c-0.3-0.1-0.5-0.3-0.7-0.3l-0.3-0.1c-0.2-0.1-0.4-0.2-0.7-0.3c-0.3-0.1-0.5-0.3-0.8-0.6c-0.2-0.2-0.5-0.5-0.6-0.9
		c-0.2-0.3-0.3-0.8-0.3-1.3c0-0.4,0-0.7,0.1-1.1s0.2-0.7,0.4-1c0.2-0.3,0.4-0.6,0.8-0.7c0.3-0.2,0.7-0.3,1.1-0.3
		c0.8,0,1.4,0.2,1.8,0.7c0.4,0.5,0.6,1.3,0.6,2.4v1h-0.7v-1c0-0.6-0.1-1.1-0.2-1.4c-0.1-0.3-0.3-0.6-0.4-0.7
		c-0.2-0.1-0.4-0.2-0.6-0.3c-0.2,0-0.4,0-0.5,0c-0.4,0-0.7,0.1-0.9,0.3c-0.2,0.2-0.4,0.4-0.5,0.7c-0.1,0.3-0.2,0.5-0.2,0.8
		c0,0.3,0,0.5,0,0.6c0,0.4,0.1,0.7,0.2,0.9c0.1,0.3,0.3,0.5,0.4,0.7c0.2,0.2,0.4,0.3,0.6,0.5c0.2,0.1,0.5,0.2,0.7,0.3l0.3,0.2
		c0.2,0.1,0.5,0.2,0.8,0.4c0.3,0.2,0.7,0.4,1,0.7c0.9,0.8,1.3,1.8,1.3,3c0,1.2-0.3,2.1-0.9,2.9c-0.7,0.9-1.6,1.3-2.8,1.3
		c-1.2,0-2.1-0.4-2.7-1.2C134.1,18.5,133.8,17.4,133.8,16.1z"/>
	<path fill="#FFFFFF" d="M142.5,20.4V5.2h6.3v0.7h-5.6v6.6V13v6.6h5.6v0.7H142.5z M143.7,12.5V6.4h5.1v0.7h-4.4v4.7h4.4v0.7H143.7z
		 M143.7,19.2V13h5.1v0.7h-4.4v4.7h4.4v0.7H143.7z"/>
</g>
</svg>
