<svg id="Ikoner" xmlns="http://www.w3.org/2000/svg" viewBox="0 0 40 40"><title>Kalender</title><path d="M39.06,4.05H30.51V1.51a.87.87,0,1,0-1.75,0V4.05H11.24V1.51a.87.87,0,1,0-1.75,0V4.05H.94a.87.87,0,0,0-.87.88V38.49a.87.87,0,0,0,.87.88H39.06a.87.87,0,0,0,.88-.87V4.93A.87.87,0,0,0,39.06,4.05ZM14.52,26.35V16.84h11v9.51Zm11,1.75v9.52h-11V28.1ZM1.82,16.84h11v9.51h-11Zm25.41,0h11v9.51h-11ZM9.49,5.8V8.62a.87.87,0,1,0,1.75,0V5.8H28.76V8.62a.88.88,0,0,0,1.75,0V5.8h7.67v9.29H1.82V5.8ZM1.82,28.1h11v9.52h-11Zm25.41,9.52V28.1h11v9.52Z"/></svg>