<?xml version="1.0" encoding="utf-8"?>
<!-- Generator: Adobe Illustrator 21.1.0, SVG Export Plug-In . SVG Version: 6.00 Build 0)  -->
<svg version="1.1" id="Layer_1" xmlns="http://www.w3.org/2000/svg" xmlns:xlink="http://www.w3.org/1999/xlink" x="0px" y="0px"
	 viewBox="0 0 481 466.3" style="enable-background:new 0 0 481 466.3;" xml:space="preserve">
<style type="text/css">
	.st0{fill:#FFFFFF;}
</style>
<title>Artboard 8</title>
<path class="st0" d="M84.6,358.1c-1.3,0-2.3-1.1-2.3-2.4c0-0.4,0.1-0.7,0.3-1l28.8-53.1c0.7-1.1,2.1-1.4,3.2-0.7
	c1,0.6,1.4,1.9,0.9,2.9l-28.8,53.1C86.2,357.7,85.4,358.1,84.6,358.1z"/>
<path class="st0" d="M185.2,358.1c-0.8,0-1.6-0.5-2-1.2l-28.8-53.1c-0.5-1.2,0-2.6,1.2-3.1c1.1-0.5,2.3-0.1,2.9,0.9l28.8,53.1
	c0.6,1.1,0.2,2.5-1,3.2C186,358,185.6,358.1,185.2,358.1L185.2,358.1z"/>
<path class="st0" d="M172.2,131.8c-1.3,0-2.3-1-2.3-2.3l0,0c0-3.2-2.6-5.8-5.8-5.8h-58.5c-3.2,0-5.8,2.6-5.8,5.8l0,0
	c-0.1,1.3-1.2,2.3-2.5,2.2c-1.2-0.1-2.1-1-2.2-2.2c0-5.8,4.7-10.5,10.4-10.5l0,0h58.5c5.8,0,10.4,4.7,10.4,10.4
	C174.6,130.7,173.5,131.8,172.2,131.8C172.2,131.8,172.2,131.8,172.2,131.8z"/>
<path class="st0" d="M128,146.6c-0.8,0-1.5-0.4-1.9-1l-16.5-22.9c-0.7-1.1-0.3-2.5,0.8-3.2c1-0.6,2.3-0.4,3,0.5l16.5,22.9
	c0.8,1,0.5,2.5-0.5,3.3C129,146.4,128.5,146.6,128,146.6L128,146.6z"/>
<path class="st0" d="M141.8,146.6c-1.3,0-2.3-1.1-2.3-2.3c0-0.5,0.2-1,0.4-1.3l16.5-22.9c0.7-1.1,2.1-1.4,3.2-0.8
	c1.1,0.7,1.4,2.1,0.8,3.2c-0.1,0.1-0.1,0.2-0.2,0.3l-16.5,22.9C143.3,146.3,142.5,146.6,141.8,146.6z"/>
<path class="st0" d="M170.8,331.6H99c-1.3,0.1-2.4-0.9-2.5-2.2c-0.1-1.3,0.9-2.4,2.2-2.5c0.1,0,0.2,0,0.3,0h71.8
	c1.3-0.1,2.4,0.9,2.5,2.2c0.1,1.3-0.9,2.4-2.2,2.5C171,331.6,170.9,331.6,170.8,331.6L170.8,331.6z"/>
<g>
	<path class="st0" d="M179.5,144.3H90.2c-6.7,0-12.1,5.4-12.1,12.1v134.2c0,6.7,5.4,12.1,12.1,12.1h89.2c6.7,0,12.1-5.4,12.1-12.1
		V156.4C191.6,149.7,186.2,144.3,179.5,144.3z M105.6,162.1c0-2.7,2.1-4.8,4.8-4.8h48.9c2.7,0,4.8,2.1,4.8,4.8v3.1
		c0,2.7-2.1,4.8-4.8,4.8h-48.9c-2.7,0-4.8-2.1-4.8-4.8V162.1z M119.8,282.8c0,1.6-1.3,2.9-2.8,2.9h-11.7c-1.6,0-2.9-1.3-2.9-2.9
		v-5.1c0-1.6,1.3-2.8,2.9-2.8h11.7c1.6,0,2.8,1.3,2.8,2.8V282.8z M167.3,282.9c0,1.6-1.3,2.8-2.8,2.8h-11.7c-1.6,0-2.8-1.3-2.8-2.8
		v-5.1c0-1.6,1.3-2.8,2.8-2.8h11.7c1.6,0,2.8,1.3,2.8,2.8V282.9z M178,231.7c0,3.2-2.6,5.8-5.8,5.8H97.5c-3.2,0-5.8-2.6-5.8-5.8
		v-42.8c0-3.2,2.6-5.8,5.8-5.8h74.7c3.2,0,5.8,2.6,5.8,5.8V231.7z"/>
</g>
</svg>
