<svg id="Ikoner" xmlns="http://www.w3.org/2000/svg" viewBox="0 0 40 40"><title>Printer</title><path d="M39.13,7.6h-4V1.39a.87.87,0,0,0-.87-.87H5.78a.87.87,0,0,0-.87.87V7.6h-4A.87.87,0,0,0,0,8.47V26.59a.87.87,0,0,0,.87.88h4V38.61a.87.87,0,0,0,.88.88H34.22a.87.87,0,0,0,.88-.87V27.47h4a.87.87,0,0,0,.88-.87V8.47A.87.87,0,0,0,39.13,7.6ZM6.65,2.27h26.7V7.6H6.65Zm26.7,35.47H6.65V20.68h26.7Zm4.91-12H35.1V19.8a.87.87,0,0,0-.87-.87H5.78a.87.87,0,0,0-.87.88v5.92H1.74V9.35H38.26Z"/><path d="M10.44,26.2H29.56a.88.88,0,0,0,0-1.75H10.44a.88.88,0,0,0,0,1.75Z"/><path d="M10.44,30.08H29.56a.88.88,0,0,0,0-1.75H10.44a.88.88,0,0,0,0,1.75Z"/><path d="M10.44,34H29.56a.88.88,0,0,0,0-1.75H10.44a.88.88,0,0,0,0,1.75Z"/><circle cx="34.22" cy="12.37" r="1.06"/></svg>