<svg id="Ikoner" xmlns="http://www.w3.org/2000/svg" viewBox="0 0 40 40"><title>Scroll</title><path d="M24.56,32.71,21,36.28V27.43a.87.87,0,0,0-1.75,0v8.84l-3.57-3.57a.87.87,0,0,0-1.24,1.24L19.49,39a.88.88,0,0,0,1.24,0l5.07-5.07a.87.87,0,0,0-1.24-1.24Z"/><path d="M20.11,5a.87.87,0,0,0-.87.88v3.3a.88.88,0,0,0,1.75,0V5.91A.87.87,0,0,0,20.11,5Z"/><path d="M21.3.64H18.7a6.78,6.78,0,0,0-6.77,6.77v10.2a6.78,6.78,0,0,0,6.77,6.77h2.6a6.78,6.78,0,0,0,6.77-6.77V7.42A6.78,6.78,0,0,0,21.3.64Zm5,17a5,5,0,0,1-5,5H18.7a5,5,0,0,1-5-5V7.42a5,5,0,0,1,5-5h2.6a5,5,0,0,1,5,5Z"/></svg>