<svg id="Ikoner" xmlns="http://www.w3.org/2000/svg" viewBox="0 0 65.96 40"><title>Send V2</title><path d="M64.38,20a.84.84,0,0,0-.23-.59,1.23,1.23,0,0,0-.36-.25l-38-17.89A.87.87,0,0,0,24.6,2.44L32.89,20,24.6,37.57a.87.87,0,0,0,.79,1.25.89.89,0,0,0,.39-.09L63.67,20.89a1.44,1.44,0,0,0,.5-.34.88.88,0,0,0,.12-.17l0-.06A.91.91,0,0,0,64.38,20Zm-4.78-.88H34.41L27.22,3.89ZM34.41,20.88H59.6L27.22,36.11Z"/><path d="M23.37,11.69H11a.87.87,0,0,0,0,1.75H23.37a.87.87,0,0,0,0-1.75Z"/><path d="M23.37,19.13H2.46a.88.88,0,0,0,0,1.75H23.37a.88.88,0,0,0,0-1.75Z"/><path d="M23.37,26.56H11a.88.88,0,0,0,0,1.75H23.37a.87.87,0,0,0,0-1.75Z"/></svg>