<?xml version="1.0" encoding="utf-8"?>
<!-- Generator: Adobe Illustrator 18.1.0, SVG Export Plug-In . SVG Version: 6.00 Build 0)  -->
<svg version="1.1" id="Layer_1" xmlns:sketch="http://www.bohemiancoding.com/sketch/ns"
	 xmlns="http://www.w3.org/2000/svg" xmlns:xlink="http://www.w3.org/1999/xlink" x="0px" y="0px" viewBox="0 0 1000 1000"
	 enable-background="new 0 0 1000 1000" xml:space="preserve">
<title>Slice 1</title>
<description>Created with Sketch (http://www.bohemiancoding.com/sketch)</description>
<path id="f" fill="#FFFFFF" d="M541.8,773.5V524.1h83.5l12.9-97.6h-96.5v-62.4c0-28.2,8.2-47.1,48.2-47.1h51.8V230
	c-9.4-1.2-40-3.5-75.3-3.5c-74.1,0-124.7,45.9-124.7,128.2v71.8h-83.5v97.6h83.5v249.4L541.8,773.5L541.8,773.5z"/>
<g>
	<path fill="#FFFFFF" d="M500,944.7C255.3,944.7,55.3,745.9,55.3,500S254.1,55.3,500,55.3S944.7,254.1,944.7,500
		S744.7,944.7,500,944.7z M500,127.1c-205.9,0-374.1,167.1-374.1,374.1S292.9,875.3,500,875.3s374.1-167.1,374.1-374.1
		S705.9,127.1,500,127.1z"/>
</g>
</svg>
