<svg id="Ikoner" xmlns="http://www.w3.org/2000/svg" viewBox="0 0 40 40"><title>Søppelkasse</title><path d="M13.7,9.87a.87.87,0,0,0-.87.88v22a.88.88,0,0,0,1.75,0v-22A.87.87,0,0,0,13.7,9.87Z"/><path d="M25.43,10.74v22a.88.88,0,0,0,1.75,0v-22a.87.87,0,1,0-1.75,0Z"/><path d="M20,9.87a.87.87,0,0,0-.87.88v22a.88.88,0,0,0,1.75,0v-22A.87.87,0,0,0,20,9.87Z"/><path d="M35.62,4.76H27.48V1.51a.87.87,0,0,0-.87-.88H13.39a.87.87,0,0,0-.87.88V4.76H4.38a.88.88,0,0,0,0,1.75H6.52V38.39a.87.87,0,0,0,.88.88H32.61a.87.87,0,0,0,.88-.87V6.51h2.14a.87.87,0,0,0,0-1.75ZM14.27,2.38H25.73V4.76H14.27ZM31.73,37.52H8.27v-31H31.73Z"/></svg>