<svg id="Ikoner" xmlns="http://www.w3.org/2000/svg" viewBox="0 0 40 40"><title>Twitter</title><path d="M36.17,1H3.83A2.77,2.77,0,0,0,1,3.76V36.24A2.77,2.77,0,0,0,3.83,39H36.17A2.78,2.78,0,0,0,39,36.24V3.76A2.78,2.78,0,0,0,36.17,1ZM29.43,15.16c0,.21,0,.42,0,.63A13.84,13.84,0,0,1,8.14,27.45a9.91,9.91,0,0,0,1.16.07,9.76,9.76,0,0,0,6-2.08,4.87,4.87,0,0,1-4.55-3.38A4.86,4.86,0,0,0,13,22a4.87,4.87,0,0,1-3.9-4.77s0,0,0-.06a4.83,4.83,0,0,0,2.2.61,4.87,4.87,0,0,1-1.51-6.5,13.82,13.82,0,0,0,10,5.08,4.87,4.87,0,0,1,8.29-4.44,9.75,9.75,0,0,0,3.09-1.18,4.88,4.88,0,0,1-2.14,2.69,9.72,9.72,0,0,0,2.79-.77A9.9,9.9,0,0,1,29.43,15.16Z"/></svg>